<?xml version="1.0" encoding="utf-8"?>
<!-- Generator: Adobe Illustrator 22.0.0, SVG Export Plug-In . SVG Version: 6.00 Build 0)  -->
<svg version="1.1" id="Capa_1" xmlns="http://www.w3.org/2000/svg" xmlns:xlink="http://www.w3.org/1999/xlink" x="0px" y="0px"
	 viewBox="0 0 24 24" style="enable-background:new 0 0 24 24;" xml:space="preserve">
<style type="text/css">
	.st0{fill:none;}
	.st1{fill:#00B0FF;}
	.st2{fill:#FFFFFF;stroke:#F2F2F2;stroke-width:0.1;stroke-miterlimit:10;}
</style>
<path class="st0" d="M0,0h24v24H0V0z"/>
<g>
	<path class="st1" d="M8.8,10l2.9,0.9L8.5,21l-2.9-0.9L8.8,10z M12,13.8l2.7,0.8l-2.9,9.1l-2.7-0.8C9.2,22.9,12,13.8,12,13.8z
		 M16.9,12.5l2.7,0.8l-2.9,9.1L14,21.6L16.9,12.5z"/>
</g>
<path class="st2" d="M19.4,7.1c-0.7-3.4-3.7-6-7.3-6c-2.9,0-5.4,1.6-6.6,4c-3,0.4-5.3,2.9-5.3,6c0,3.3,2.7,6,6,6H19c2.8,0,5-2.2,5-5
	C24,9.5,22,7.3,19.4,7.1z"/>
</svg>
