<?xml version="1.0" encoding="utf-8"?>
<!-- Generator: Adobe Illustrator 22.0.0, SVG Export Plug-In . SVG Version: 6.00 Build 0)  -->
<svg version="1.1" id="Capa_1" xmlns="http://www.w3.org/2000/svg" xmlns:xlink="http://www.w3.org/1999/xlink" x="0px" y="0px"
	 viewBox="0 0 24 24" style="enable-background:new 0 0 24 24;" xml:space="preserve">
<style type="text/css">
	.st0{fill:none;}
	.st1{fill:#FFFFFF;stroke:#DFDFDC;stroke-width:0.25;stroke-miterlimit:10;}
	.st2{fill:#00B0FF;}
</style>
<path class="st0" d="M0,0h24v24H0V0z"/>
<path class="st1" d="M19.4,7c-0.7-3.4-3.7-6-7.4-6C9.1,1,6.6,2.6,5.3,5C2.3,5.4,0,7.9,0,11c0,3.3,2.7,6,6,6h13c2.8,0,5-2.2,5-5
	C24,9.4,22,7.2,19.4,7z"/>
<g>
	<path class="st2" d="M6.6,10.6h2.7V16H6.6V10.6z M6.6,17.3h2.7V20H6.6V17.3z M10.6,13.3h2.7v5.4h-2.7V13.3z M10.6,20h2.7v2.7h-2.7
		V20z M14.7,10.6h2.7V16h-2.7V10.6z M14.7,17.3h2.7V20h-2.7V17.3z"/>
</g>
</svg>
