<?xml version="1.0" encoding="utf-8"?>
<!-- Generator: Adobe Illustrator 22.0.0, SVG Export Plug-In . SVG Version: 6.00 Build 0)  -->
<svg version="1.1" id="Capa_1" xmlns="http://www.w3.org/2000/svg" xmlns:xlink="http://www.w3.org/1999/xlink" x="0px" y="0px"
	 viewBox="0 0 24 24" style="enable-background:new 0 0 24 24;" xml:space="preserve">
<style type="text/css">
	.st0{fill:#00B0FF;}
	.st1{fill:none;}
	.st2{fill:#FFFFFF;stroke:#DFDFDC;stroke-width:0.25;stroke-miterlimit:10;}
	.st3{fill:#FFFFFF;stroke:#6EDDFF;stroke-width:0.25;stroke-miterlimit:10;}
</style>
<g>
	<path class="st0" d="M14.9,13.3l1.8,0.6l-2,6.2l-1.8-0.6L14.9,13.3z M16.8,15.6l1.7,0.5l-1.8,5.6L15,21.2
		C15.1,21.2,16.8,15.6,16.8,15.6z M19.8,14.8l1.7,0.5l-1.8,5.6L18,20.4L19.8,14.8z"/>
</g>
<path class="st1" d="M0,0h24v24H0V0z"/>
<path class="st2" d="M19.4,7c-0.7-3.4-3.7-6-7.4-6C9.1,1,6.6,2.6,5.3,5C2.3,5.4,0,7.9,0,11c0,3.3,2.7,6,6,6h13c2.8,0,5-2.2,5-5
	C24,9.4,22,7.2,19.4,7z"/>
<g>
	<path class="st1" d="M3.5,12.6h8v8h-8V12.6z"/>
	<path class="st3" d="M10.9,16.3H9.5l1.1-1.1l-0.5-0.5l-1.6,1.6H7.9v-0.7L9.4,14l-0.5-0.5l-1.1,1.1v-1.4H7.2v1.4l-1.1-1.1L5.6,14
		l1.6,1.6v0.7H6.5L5,14.7l-0.5,0.5l1.1,1.1H4.2V17h1.4l-1.1,1L5,18.5l1.6-1.6h0.7v0.7l-1.6,1.6l0.5,0.5l1.1-1.1V20H8v-1.4l1.1,1.1
		l0.5-0.5L8,17.6v-0.7h0.7l1.6,1.6l0.5-0.5l-1.1-1.1h1.4v-0.6H10.9z"/>
</g>
</svg>
