<?xml version="1.0" encoding="utf-8"?>
<!-- Generator: Adobe Illustrator 22.0.0, SVG Export Plug-In . SVG Version: 6.00 Build 0)  -->
<svg version="1.1" id="Capa_1" xmlns="http://www.w3.org/2000/svg" xmlns:xlink="http://www.w3.org/1999/xlink" x="0px" y="0px"
	 viewBox="0 0 24 24" style="enable-background:new 0 0 24 24;" xml:space="preserve">
<style type="text/css">
	.st0{fill:#FCF22C;}
</style>
<path class="st0" d="M7,12c0,2.8,2.2,5,5,5s5-2.2,5-5s-2.2-5-5-5S7,9.2,7,12z M11,19h2v3h-2V19z M11,2h2v3h-2V2z M2,11h3v2H2V11z
	 M19,11h3v2h-3V11z"/>
<path class="st0" d="M5.6,19.8l-1.4-1.4l2.1-2.1l1.4,1.4L5.6,19.8z"/>
<path class="st0" d="M16.2,6.3l2.1-2.1l1.4,1.4l-2.1,2.1L16.2,6.3z"/>
<path class="st0" d="M6.3,7.8L4.2,5.6l1.4-1.4l2.1,2.1L6.3,7.8z"/>
<path class="st0" d="M19.8,18.4l-1.4,1.4l-2.1-2.1l1.4-1.4L19.8,18.4z"/>
</svg>
