<?xml version="1.0" encoding="utf-8"?>
<!-- Generator: Adobe Illustrator 22.0.0, SVG Export Plug-In . SVG Version: 6.00 Build 0)  -->
<svg version="1.1" id="Capa_1" xmlns="http://www.w3.org/2000/svg" xmlns:xlink="http://www.w3.org/1999/xlink" x="0px" y="0px"
	 viewBox="0 0 24 24" style="enable-background:new 0 0 24 24;" xml:space="preserve">
<style type="text/css">
	.st0{fill:#00B0FF;}
	.st1{fill:none;}
	.st2{fill:#FFFFFF;stroke:#F2F2F2;stroke-width:0.1;stroke-miterlimit:10;}
	.st3{fill:#FFF619;}
</style>
<g>
	<path class="st0" d="M12,15.5h1.7v5.9H12V15.5z M14.4,17.1h1.7V23h-1.7C14.4,23,14.4,17.1,14.4,17.1z M17,15.5h1.7v5.9H17V15.5z"/>
</g>
<path class="st1" d="M0.1,0.2h23.8V24H0.1V0.2z"/>
<path class="st2" d="M19.3,6.9c-0.7-3.4-3.7-6-7.3-6c-2.9,0-5.3,1.6-6.6,4c-3,0.4-5.2,2.9-5.2,6c0,3.3,2.7,6,5.9,6h12.9
	c2.8,0,4.9-2.2,4.9-5C23.8,9.3,21.9,7.1,19.3,6.9z"/>
<g>
	<path class="st3" d="M6.8,21.3H6.2l0.6-3.9H4.9c-0.3,0-0.3-0.2-0.2-0.4c0.1-0.2,0,0,0-0.1c0.7-1.3,1.8-3.1,3.2-5.7h0.6l-0.6,3.9
		h1.9c0.3,0,0.3,0.2,0.3,0.3v0.1C7.9,19.4,6.8,21.3,6.8,21.3z"/>
</g>
</svg>
