<?xml version="1.0" encoding="utf-8"?>
<!-- Generator: Adobe Illustrator 22.0.0, SVG Export Plug-In . SVG Version: 6.00 Build 0)  -->
<svg version="1.1" id="Capa_1" xmlns="http://www.w3.org/2000/svg" xmlns:xlink="http://www.w3.org/1999/xlink" x="0px" y="0px"
	 viewBox="0 0 24 24" style="enable-background:new 0 0 24 24;" xml:space="preserve">
<style type="text/css">
	.st0{fill:#00B0FF;}
	.st1{fill:none;}
	.st2{fill:#FFFFFF;stroke:#DFDFDC;stroke-width:0.25;stroke-miterlimit:10;}
	.st3{fill:#F0FF00;}
</style>
<g>
	<path class="st0" d="M12,15.5h1.7v5.9H12V15.5z M14.5,17.1h1.7V23h-1.7C14.5,23,14.5,17.1,14.5,17.1z M17.1,15.5h1.7v5.9h-1.7V15.5
		z"/>
</g>
<path class="st1" d="M0,0h24v24H0V0z"/>
<path class="st2" d="M19.4,7c-0.7-3.4-3.7-6-7.4-6C9.1,1,6.6,2.6,5.3,5C2.3,5.4,0,7.9,0,11c0,3.3,2.7,6,6,6h13c2.8,0,5-2.2,5-5
	C24,9.4,22,7.2,19.4,7z"/>
<g>
	<path class="st3" d="M6.8,21.3H6.2l0.6-3.9H4.9c-0.3,0-0.3-0.2-0.2-0.4c0.1-0.2,0,0,0-0.1c0.7-1.3,1.8-3.1,3.2-5.7h0.6l-0.6,3.9
		h1.9c0.3,0,0.3,0.2,0.3,0.3v0.1C7.9,19.4,6.8,21.3,6.8,21.3z"/>
</g>
</svg>
