<?xml version="1.0" encoding="utf-8"?>
<!-- Generator: Adobe Illustrator 22.0.0, SVG Export Plug-In . SVG Version: 6.00 Build 0)  -->
<svg version="1.1" id="Capa_1" xmlns="http://www.w3.org/2000/svg" xmlns:xlink="http://www.w3.org/1999/xlink" x="0px" y="0px"
	 viewBox="0 0 24 24" style="enable-background:new 0 0 24 24;" xml:space="preserve">
<style type="text/css">
	.st0{fill:none;}
	.st1{fill:#FFFFFF;stroke:#DFDFDC;stroke-width:0.25;stroke-miterlimit:10;}
	.st2{fill:#04C0FA;}
</style>
<path class="st0" d="M0,0h24v24H0V0z"/>
<path class="st1" d="M19.2,6.8C18.5,3.5,15.7,1,12.1,1C9.3,1,6.9,2.5,5.7,4.9c-2.9,0.4-5.1,2.8-5.1,5.8c0,3.2,2.6,5.8,5.8,5.8h12.5
	c2.7,0,4.8-2.1,4.8-4.8C23.7,9.1,21.7,7,19.2,6.8z"/>
<g>
	<rect x="5.2" y="9.5" class="st0" width="3.8" height="3.8"/>
	<path class="st2" d="M7.1,9.8c-0.8,0.7-1.3,1.3-1.3,1.9c0,0.8,0.6,1.3,1.3,1.3s1.3-0.5,1.3-1.3C8.3,11.1,7.9,10.5,7.1,9.8z
		 M6.4,11.7c0.1,0,0.1,0,0.1,0.1c0.1,0.3,0.4,0.5,0.6,0.5c0.1,0,0.1,0.1,0.1,0.1c0,0.1-0.1,0.1-0.1,0.1c-0.3,0-0.7-0.2-0.8-0.6
		C6.3,11.7,6.3,11.7,6.4,11.7z"/>
</g>
<g>
	<rect x="7.4" y="13.4" class="st0" width="3.8" height="3.8"/>
	<path class="st2" d="M9.3,13.7C8.4,14.4,8,15,8,15.5c0,0.8,0.6,1.3,1.3,1.3s1.3-0.5,1.3-1.3C10.5,15,10.1,14.4,9.3,13.7z M8.6,15.6
		c0.1,0,0.1,0,0.1,0.1c0.1,0.3,0.4,0.5,0.6,0.5c0.1,0,0.1,0.1,0.1,0.1c0,0.1-0.1,0.1-0.1,0.1c-0.3,0-0.7-0.2-0.8-0.6
		C8.5,15.6,8.6,15.6,8.6,15.6z"/>
</g>
<g>
	<rect x="12.4" y="13.4" class="st0" width="3.8" height="3.8"/>
	<path class="st2" d="M14.3,13.7C13.5,14.4,13,15,13,15.6c0,0.8,0.6,1.3,1.3,1.3s1.3-0.5,1.3-1.3C15.6,15,15.2,14.4,14.3,13.7z
		 M13.7,15.6c0.1,0,0.1,0,0.1,0.1c0.1,0.3,0.4,0.5,0.6,0.5c0.1,0,0.1,0.1,0.1,0.1c0,0.1-0.1,0.1-0.1,0.1c-0.3,0-0.7-0.2-0.8-0.6
		C13.6,15.6,13.6,15.6,13.7,15.6z"/>
</g>
<g>
	<rect x="10.1" y="9.5" class="st0" width="3.8" height="3.8"/>
	<path class="st2" d="M11.9,9.8c-0.8,0.7-1.3,1.3-1.3,1.9c0,0.8,0.6,1.3,1.3,1.3s1.3-0.5,1.3-1.3C13.2,11.1,12.8,10.5,11.9,9.8z
		 M11.3,11.7c0.1,0,0.1,0,0.1,0.1c0.1,0.3,0.4,0.5,0.6,0.5c0.1,0,0.1,0.1,0.1,0.1c0,0.1-0.1,0.1-0.1,0.1c-0.3,0-0.7-0.2-0.8-0.6
		C11.2,11.7,11.2,11.7,11.3,11.7z"/>
</g>
<g>
	<rect x="15" y="9.5" class="st0" width="3.8" height="3.8"/>
	<path class="st2" d="M16.8,9.8c-0.8,0.7-1.3,1.3-1.3,1.9c0,0.8,0.6,1.3,1.3,1.3s1.3-0.5,1.3-1.3C18.1,11.1,17.7,10.5,16.8,9.8z
		 M16.2,11.7c0.1,0,0.1,0,0.1,0.1c0.1,0.3,0.4,0.5,0.6,0.5c0.1,0,0.1,0.1,0.1,0.1c0,0.1-0.1,0.1-0.1,0.1c-0.3,0-0.7-0.2-0.8-0.6
		C16.1,11.7,16.1,11.7,16.2,11.7z"/>
</g>
<g>
	<rect x="5.2" y="17.3" class="st0" width="3.8" height="3.8"/>
	<path class="st2" d="M7.1,17.6c-0.8,0.7-1.3,1.3-1.3,1.9c0,0.8,0.6,1.3,1.3,1.3s1.3-0.5,1.3-1.3C8.3,18.9,7.9,18.3,7.1,17.6z
		 M6.4,19.5c0.1,0,0.1,0,0.1,0.1c0.1,0.3,0.4,0.5,0.6,0.5c0.1,0,0.1,0.1,0.1,0.1c0,0.1-0.1,0.1-0.1,0.1c-0.3,0-0.7-0.2-0.8-0.6
		C6.3,19.6,6.3,19.5,6.4,19.5z"/>
</g>
<g>
	<rect x="10.1" y="17.3" class="st0" width="3.8" height="3.8"/>
	<path class="st2" d="M11.9,17.6c-0.8,0.7-1.3,1.3-1.3,1.9c0,0.8,0.6,1.3,1.3,1.3s1.3-0.5,1.3-1.3C13.2,18.9,12.8,18.3,11.9,17.6z
		 M11.3,19.5c0.1,0,0.1,0,0.1,0.1c0.1,0.3,0.4,0.5,0.6,0.5c0.1,0,0.1,0.1,0.1,0.1c0,0.1-0.1,0.1-0.1,0.1c-0.3,0-0.7-0.2-0.8-0.6
		C11.2,19.6,11.2,19.5,11.3,19.5z"/>
</g>
<g>
	<rect x="15" y="17.3" class="st0" width="3.8" height="3.8"/>
	<path class="st2" d="M16.8,17.6c-0.8,0.7-1.3,1.3-1.3,1.9c0,0.8,0.6,1.3,1.3,1.3s1.3-0.5,1.3-1.3C18.1,18.9,17.7,18.3,16.8,17.6z
		 M16.2,19.5c0.1,0,0.1,0,0.1,0.1c0.1,0.3,0.4,0.5,0.6,0.5c0.1,0,0.1,0.1,0.1,0.1c0,0.1-0.1,0.1-0.1,0.1c-0.3,0-0.7-0.2-0.8-0.6
		C16.1,19.6,16.1,19.5,16.2,19.5z"/>
</g>
</svg>
