<?xml version="1.0" encoding="utf-8"?>
<!-- Generator: Adobe Illustrator 22.0.0, SVG Export Plug-In . SVG Version: 6.00 Build 0)  -->
<svg version="1.1" id="Capa_1" xmlns="http://www.w3.org/2000/svg" xmlns:xlink="http://www.w3.org/1999/xlink" x="0px" y="0px"
	 viewBox="0 0 24 24" style="enable-background:new 0 0 24 24;" xml:space="preserve">
<style type="text/css">
	.st0{fill:none;}
	.st1{fill:#00B0FF;}
	.st2{fill:#FFFFFF;stroke:#DFDFDC;stroke-width:0.25;stroke-miterlimit:10;}
	.st3{fill:#C7D1D5;}
</style>
<path class="st0" d="M0,0h24v24H0V0z"/>
<g>
	<path class="st1" d="M8.7,9.9l2.9,0.9L8.4,21l-2.9-0.9L8.7,9.9z M11.9,13.7l2.7,0.8l-2.9,9.2L9,22.9C9.1,22.9,11.9,13.7,11.9,13.7z
		 M16.8,12.4l2.7,0.8l-2.9,9.2l-2.7-0.8L16.8,12.4z"/>
</g>
<path class="st2" d="M19.4,7c-0.7-3.4-3.7-6-7.4-6C9.1,1,6.6,2.6,5.3,5C2.3,5.4,0,7.9,0,11c0,3.3,2.7,6,6,6h13c2.8,0,5-2.2,5-5
	C24,9.4,22,7.2,19.4,7z"/>
<g>
	<g>
		<path class="st0" d="M9.2,4.2h13.6v13.6H9.2V4.2z"/>
	</g>
	<g>
		<g>
			<path class="st3" d="M18.4,14c0,0.8-0.6,1.4-1.4,1.4s-1.4-0.6-1.4-1.4h1c0,0.3,0.2,0.5,0.5,0.5s0.5-0.2,0.5-0.5s-0.2-0.5-0.5-0.5
				h-4.6v-1H17C17.8,12.6,18.4,13.2,18.4,14z M20.6,9c0-0.9-0.8-1.7-1.7-1.7c-0.9,0-1.7,0.8-1.7,1.7h1c0-0.4,0.3-0.7,0.7-0.7
				c0.4,0,0.7,0.3,0.7,0.7s-0.3,0.7-0.7,0.7h-6.5v1h6.5C19.8,10.7,20.6,9.9,20.6,9z M20.3,11.2h-7.9v1h7.9c0.4,0,0.7,0.3,0.7,0.7
				s-0.3,0.7-0.7,0.7v1c0.9,0,1.7-0.8,1.7-1.7S21.3,11.2,20.3,11.2z"/>
		</g>
	</g>
</g>
</svg>
