<?xml version="1.0" encoding="utf-8"?>
<!-- Generator: Adobe Illustrator 22.0.0, SVG Export Plug-In . SVG Version: 6.00 Build 0)  -->
<svg version="1.1" id="Capa_1" xmlns="http://www.w3.org/2000/svg" xmlns:xlink="http://www.w3.org/1999/xlink" x="0px" y="0px"
	 viewBox="0 0 24 24" style="enable-background:new 0 0 24 24;" xml:space="preserve">
<style type="text/css">
	.st0{fill:none;}
	.st1{fill:#FFFFFF;stroke:#DFDFDC;stroke-width:0.25;stroke-miterlimit:10;}
	.st2{fill:#AAADAE;}
</style>
<path class="st0" d="M0,0h24v24H0V0z"/>
<path class="st1" d="M19.4,8c-0.7-3.4-3.7-6-7.4-6C9.1,2,6.6,3.6,5.3,6C2.3,6.4,0,8.9,0,12c0,3.3,2.7,6,6,6h13c2.8,0,5-2.2,5-5
	C24,10.4,22,8.2,19.4,8z"/>
<g>
	<path class="st0" d="M1.8,9.6H23v16.3H1.8V9.6z"/>
	<path class="st2" d="M3.6,18.8v1.4h17.7v-1.4H3.6z M3.6,16.1v1.4h13.2v-1.4H3.6z M3.6,13.3v1.4h16.1v-1.4H3.6z"/>
</g>
</svg>
