<?xml version="1.0" encoding="utf-8"?>
<!-- Generator: Adobe Illustrator 22.0.0, SVG Export Plug-In . SVG Version: 6.00 Build 0)  -->
<svg version="1.1" id="Capa_1" xmlns="http://www.w3.org/2000/svg" xmlns:xlink="http://www.w3.org/1999/xlink" x="0px" y="0px"
	 viewBox="0 0 24 24" style="enable-background:new 0 0 24 24;" xml:space="preserve">
<style type="text/css">
	.st0{fill:none;}
	.st1{fill:#9C9C9C;}
	.st2{fill:#DFDFDC;}
	.st3{fill:#B6B6B0;}
</style>
<path class="st0" d="M0,0h24v24H0V0z"/>
<path class="st1" d="M20.9,10.4c-0.4-2.1-2.3-3.8-4.6-3.8c-1.8,0-3.4,1-4.2,2.5c-1.9,0.3-3.3,1.8-3.3,3.8c0,2.1,1.7,3.8,3.8,3.8h8.2
	c1.8,0,3.1-1.4,3.1-3.1C23.8,11.9,22.6,10.5,20.9,10.4z"/>
<path class="st2" d="M12.9,6.4c-0.4-2.1-2.3-3.8-4.6-3.8c-1.8,0-3.4,1-4.2,2.5C2.2,5.3,0.7,6.9,0.7,8.9c0,2.1,1.7,3.8,3.8,3.8h8.2
	c1.8,0,3.1-1.4,3.1-3.1C15.8,7.9,14.6,6.5,12.9,6.4z"/>
<path class="st3" d="M9.5,13.5c-0.3-1.5-1.7-2.7-3.4-2.7c-1.3,0-2.5,0.7-3,1.8c-1.4,0.2-2.4,1.3-2.4,2.7c0,1.5,1.2,2.7,2.7,2.7h5.9
	c1.3,0,2.3-1,2.3-2.3C11.6,14.6,10.7,13.6,9.5,13.5z"/>
</svg>
