<?xml version="1.0" encoding="utf-8"?>
<!-- Generator: Adobe Illustrator 22.0.0, SVG Export Plug-In . SVG Version: 6.00 Build 0)  -->
<svg version="1.1" id="Capa_1" xmlns="http://www.w3.org/2000/svg" xmlns:xlink="http://www.w3.org/1999/xlink" x="0px" y="0px"
	 viewBox="0 0 24 24" style="enable-background:new 0 0 24 24;" xml:space="preserve">
<style type="text/css">
	.st0{fill:none;}
	.st1{fill:#FFFFFF;stroke:#DFDFDC;stroke-width:0.25;stroke-miterlimit:10;}
	.st2{fill:#FFFFFF;stroke:#6EDDFF;stroke-width:0.25;stroke-miterlimit:10;}
</style>
<path class="st0" d="M0,0h24v24H0V0z"/>
<path class="st1" d="M19.4,7c-0.7-3.4-3.7-6-7.4-6C9.1,1,6.6,2.6,5.3,5C2.3,5.4,0,7.9,0,11c0,3.3,2.7,6,6,6h13c2.8,0,5-2.2,5-5
	C24,9.4,22,7.2,19.4,7z"/>
<g>
	<path class="st0" d="M5.5,9.6h13v13h-13V9.6z"/>
	<path class="st2" d="M17.4,15.5h-2.3l1.8-1.8L16.1,13l-2.5,2.5h-1.1v-1.1l2.5-2.5l-0.8-0.8l-1.8,1.8v-2.3h-1.1v2.3l-1.8-1.8
		l-0.8,0.8l2.5,2.5v1.1h-1.1L7.9,13l-0.8,0.8l1.8,1.8H6.6v1.1h2.3l-1.8,1.8l0.8,0.8l2.5-2.5h1.1v1.1L9,20.4L9.7,21l1.8-1.8v2.3h1.1
		v-2.3l1.8,1.8l0.8-0.8l-2.5-2.5v-1.1h1.1l2.5,2.5l0.8-0.8l-1.8-1.8h2.3v-1H17.4z"/>
</g>
</svg>
