<?xml version="1.0" encoding="utf-8"?>
<!-- Generator: Adobe Illustrator 22.0.0, SVG Export Plug-In . SVG Version: 6.00 Build 0)  -->
<svg version="1.1" id="Capa_1" xmlns="http://www.w3.org/2000/svg" xmlns:xlink="http://www.w3.org/1999/xlink" x="0px" y="0px"
	 viewBox="0 0 24 24" style="enable-background:new 0 0 24 24;" xml:space="preserve">
<style type="text/css">
	.st0{fill:none;}
	.st1{fill:#FFFFFF;stroke:#DFDFDC;stroke-width:0.25;stroke-miterlimit:10;}
	.st2{fill:#F0FF00;}
</style>
<path class="st0" d="M0,0h24v24H0V0z"/>
<path class="st1" d="M19.4,7c-0.7-3.4-3.7-6-7.4-6C9.1,1,6.6,2.6,5.3,5C2.3,5.4,0,7.9,0,11c0,3.3,2.7,6,6,6h13c2.8,0,5-2.2,5-5
	C24,9.4,22,7.2,19.4,7z"/>
<g>
	<path class="st2" d="M8.8,22.6H8.2l0.6-4.3H6.7c-0.4,0-0.3-0.2-0.2-0.4c0.1-0.2,0,0,0-0.1c0.8-1.4,2-3.5,3.6-6.2h0.6L10,15.9h2.1
		c0.3,0,0.3,0.2,0.3,0.3v0.1C10,20.5,8.8,22.6,8.8,22.6z"/>
</g>
<g>
	<path class="st2" d="M12.9,18.3h-0.5l0.5-3.2h-1.6c-0.3,0-0.3-0.1-0.2-0.3s0,0,0-0.1c0.6-1,1.5-2.6,2.7-4.7h0.5l-0.5,3.2h1.6
		c0.2,0,0.3,0.2,0.2,0.2v0.1C13.8,16.7,12.9,18.3,12.9,18.3z"/>
</g>
</svg>
