<?xml version="1.0" encoding="utf-8"?>
<!-- Generator: Adobe Illustrator 22.0.0, SVG Export Plug-In . SVG Version: 6.00 Build 0)  -->
<svg version="1.1" id="Capa_1" xmlns="http://www.w3.org/2000/svg" xmlns:xlink="http://www.w3.org/1999/xlink" x="0px" y="0px"
	 viewBox="0 0 24 24" style="enable-background:new 0 0 24 24;" xml:space="preserve">
<style type="text/css">
	.st0{opacity:0.25;fill:none;}
	.st1{opacity:0.25;enable-background:new    ;}
</style>
<path class="st0" d="M0,0h24v24H0V0z"/>
<path class="st1" d="M28.2,7.3c-0.3-1.4-1.5-2.5-3-2.5c-1.2,0-2.2,0.7-2.7,1.7c-1.2,0.1-2.2,1.2-2.2,2.5c0,1.4,1.1,2.5,2.5,2.5h5.4
	c1.1,0,2.1-0.9,2.1-2.1C30.1,8.3,29.3,7.4,28.2,7.3z"/>
<path class="st1" d="M15,6.2c-0.3-1.4-1.5-2.4-2.9-2.4c-1.2,0-2.2,0.7-2.7,1.6C8.2,5.6,7.2,6.6,7.2,7.8c0,1.3,1.1,2.4,2.4,2.4h5.2
	c1.1,0,2-0.9,2-2C16.8,7.2,16,6.3,15,6.2z"/>
<path class="st1" d="M21.9,16.5c-0.3-1.5-1.7-2.7-3.3-2.7c-1.3,0-2.4,0.7-3,1.8c-1.3,0.1-2.4,1.3-2.4,2.7c0,1.5,1.2,2.7,2.7,2.7h5.8
	c1.2,0,2.2-1,2.2-2.2C24,17.6,23.1,16.6,21.9,16.5z"/>
<path class="st1" d="M12.9,21.5c-0.3-1.5-1.7-2.7-3.3-2.7c-1.3,0-2.4,0.7-3,1.8c-1.3,0.1-2.4,1.3-2.4,2.7c0,1.5,1.2,2.7,2.7,2.7h5.8
	c1.2,0,2.2-1,2.2-2.2C15,22.6,14.1,21.6,12.9,21.5z"/>
<path class="st1" d="M4.9,14.5c-0.3-1.5-1.7-2.7-3.3-2.7c-1.3,0-2.4,0.7-3,1.8c-1.3,0.1-2.4,1.3-2.4,2.7c0,1.5,1.2,2.7,2.7,2.7h5.8
	C6,19,7,18,7,16.8C7,15.6,6.1,14.6,4.9,14.5z"/>
<path class="st1" d="M3.2,2C2.9,0.8,1.8-0.2,0.5-0.2c-1,0-1.9,0.6-2.4,1.4c-1.1,0.1-1.9,1-1.9,2.1c0,1.2,1,2.2,2.2,2.2H3
	c1,0,1.8-0.8,1.8-1.8C4.8,2.8,4.1,2.1,3.2,2z"/>
</svg>
