<?xml version="1.0" encoding="utf-8"?>
<!-- Generator: Adobe Illustrator 22.0.0, SVG Export Plug-In . SVG Version: 6.00 Build 0)  -->
<svg version="1.1" id="Capa_1" xmlns="http://www.w3.org/2000/svg" xmlns:xlink="http://www.w3.org/1999/xlink" x="0px" y="0px"
	 viewBox="0 0 24 24" style="enable-background:new 0 0 24 24;" xml:space="preserve">
<style type="text/css">
	.st0{fill:none;}
	.st1{fill:#FFF619;}
	.st2{fill:#FFFFFF;stroke:#F2F2F2;stroke-width:0.1;stroke-miterlimit:10;}
</style>
<path class="st0" d="M0,0h24v24H0V0z"/>
<circle class="st1" cx="8.6" cy="9.5" r="7.5"/>
<path class="st2" d="M20.3,9.8c-0.4-2.2-2.4-3.9-4.7-3.9c-1.9,0-3.5,1-4.3,2.6c-2,0.3-3.4,1.9-3.4,3.9c0,2.2,1.7,3.9,3.9,3.9h8.4
	c1.9,0,3.2-1.4,3.2-3.2C23.3,11.3,22.1,9.9,20.3,9.8z"/>
<path class="st2" d="M10.3,13.6C10,12.1,8.7,10.9,7,10.9c-1.3,0-2.5,0.7-3,1.8c-1.4,0.2-2.4,1.3-2.4,2.7c0,1.5,1.2,2.7,2.7,2.7h6
	c1.3,0,2.3-1,2.3-2.3C12.4,14.7,11.5,13.7,10.3,13.6z"/>
</svg>
