<?xml version="1.0" encoding="utf-8"?>
<!-- Generator: Adobe Illustrator 22.0.0, SVG Export Plug-In . SVG Version: 6.00 Build 0)  -->
<svg version="1.1" id="Capa_1" xmlns="http://www.w3.org/2000/svg" xmlns:xlink="http://www.w3.org/1999/xlink" x="0px" y="0px"
	 viewBox="0 0 24 24" style="enable-background:new 0 0 24 24;" xml:space="preserve">
<style type="text/css">
	.st0{fill:none;}
	.st1{fill:#FFFFFF;stroke:#F2F2F2;stroke-width:0.1;stroke-miterlimit:10;}
	.st2{fill:#C7D1D5;}
</style>
<path class="st0" d="M0,0h24v24H0V0z"/>
<path class="st1" d="M19.3,6.9C18.6,3.6,15.7,1,12,1C9.1,1,6.7,2.6,5.4,5c-3,0.4-5.2,2.9-5.2,5.9c0,3.3,2.7,5.9,5.9,5.9h12.8
	c2.8,0,4.9-2.2,4.9-4.9C23.9,9.3,21.9,7.1,19.3,6.9z"/>
<g>
	<g>
		<path class="st0" d="M1,5h20.8v20.8H1V5z"/>
	</g>
	<g>
		<g>
			<path class="st2" d="M15.1,20c0,1.2-0.9,2.1-2.1,2.1s-2.1-0.9-2.1-2.1h1.5c0,0.5,0.3,0.8,0.8,0.8S14,20.5,14,20s-0.3-0.8-0.8-0.8
				H6v-1.5h6.9C14.1,17.9,15.1,18.8,15.1,20z M18.4,12.3c0-1.4-1.2-2.6-2.6-2.6s-2.6,1.2-2.6,2.6h1.5c0-0.6,0.5-1.1,1.1-1.1
				s1.1,0.5,1.1,1.1s-0.5,1.1-1.1,1.1h-10v1.5h10C17.2,14.9,18.4,13.7,18.4,12.3z M18,15.7H5.9v1.5H18c0.6,0,1.1,0.5,1.1,1.1
				s-0.5,1.1-1.1,1.1v1.5c1.4,0,2.6-1.2,2.6-2.6S19.5,15.7,18,15.7z"/>
		</g>
	</g>
</g>
</svg>
