<?xml version="1.0" encoding="utf-8"?>
<!-- Generator: Adobe Illustrator 22.0.0, SVG Export Plug-In . SVG Version: 6.00 Build 0)  -->
<svg version="1.1" id="Capa_1" xmlns="http://www.w3.org/2000/svg" xmlns:xlink="http://www.w3.org/1999/xlink" x="0px" y="0px"
	 viewBox="0 0 24 24" style="enable-background:new 0 0 24 24;" xml:space="preserve">
<style type="text/css">
	.st0{fill:none;}
	.st1{fill:#00B0FF;}
	.st2{fill:#FFFFFF;stroke:#F2F2F2;stroke-width:0.1;stroke-miterlimit:10;}
	.st3{fill:#C7D1D5;}
</style>
<path class="st0" d="M0,0h24v24H0V0z"/>
<g>
	<path class="st1" d="M8.8,10l2.9,0.9L8.5,21l-2.9-0.9L8.8,10z M12,13.8l2.7,0.8l-2.9,9.1l-2.7-0.8C9.2,22.9,12,13.8,12,13.8z
		 M16.9,12.5l2.7,0.8l-2.9,9.1L14,21.6L16.9,12.5z"/>
</g>
<path class="st2" d="M19.4,7.2c-0.7-3.4-3.7-5.9-7.3-5.9c-2.9,0-5.4,1.6-6.6,4c-3,0.4-5.3,2.9-5.3,5.9c0,3.3,2.7,5.9,5.9,5.9H19
	c2.8,0,5-2.2,5-5C24,9.5,22,7.4,19.4,7.2z"/>
<g>
	<g>
		<path class="st0" d="M9.3,4.4h13.5v13.5H9.3V4.4z"/>
	</g>
	<g>
		<g>
			<path class="st3" d="M18.5,14.1c0,0.8-0.6,1.4-1.4,1.4c-0.8,0-1.4-0.6-1.4-1.4h1c0,0.3,0.2,0.5,0.5,0.5s0.5-0.2,0.5-0.5
				s-0.2-0.5-0.5-0.5h-4.6v-1h4.5C17.9,12.7,18.5,13.3,18.5,14.1z M20.6,9.1c0-0.9-0.8-1.7-1.7-1.7s-1.7,0.8-1.7,1.7h1
				c0-0.4,0.3-0.7,0.7-0.7c0.4,0,0.7,0.3,0.7,0.7c0,0.4-0.3,0.7-0.7,0.7h-6.4v1h6.4C19.8,10.8,20.6,10,20.6,9.1z M20.3,11.3h-7.8v1
				h7.8c0.4,0,0.7,0.3,0.7,0.7c0,0.4-0.3,0.7-0.7,0.7v1c0.9,0,1.7-0.8,1.7-1.7S21.3,11.3,20.3,11.3z"/>
		</g>
	</g>
</g>
</svg>
