<?xml version="1.0" encoding="utf-8"?>
<!-- Generator: Adobe Illustrator 22.0.0, SVG Export Plug-In . SVG Version: 6.00 Build 0)  -->
<svg version="1.1" id="Capa_1" xmlns="http://www.w3.org/2000/svg" xmlns:xlink="http://www.w3.org/1999/xlink" x="0px" y="0px"
	 viewBox="0 0 24 24" style="enable-background:new 0 0 24 24;" xml:space="preserve">
<style type="text/css">
	.st0{fill:none;}
	.st1{fill:#FFFFFF;stroke:#F2F2F2;stroke-width:0.1;stroke-miterlimit:10;}
	.st2{fill:#AAADAE;}
</style>
<path class="st0" d="M0.2,0h23.7v23.7H0.2V0z"/>
<path class="st1" d="M19.3,7.9C18.6,4.5,15.6,2,12,2C9.1,2,6.7,3.6,5.4,5.9c-3,0.4-5.2,2.9-5.2,5.9c0,3.3,2.7,5.9,5.9,5.9h12.8
	c2.8,0,4.9-2.2,4.9-4.9C23.8,10.3,21.9,8.1,19.3,7.9z"/>
<g>
	<path class="st0" d="M1.9,9.5h20.9v16.1H1.9V9.5z"/>
	<path class="st2" d="M3.7,18.5v1.4h17.5v-1.4H3.7z M3.7,15.9v1.4h13v-1.4H3.7z M3.7,13.1v1.4h15.9v-1.4H3.7z"/>
</g>
</svg>
