<?xml version="1.0" encoding="utf-8"?>
<!-- Generator: Adobe Illustrator 22.0.0, SVG Export Plug-In . SVG Version: 6.00 Build 0)  -->
<svg version="1.1" id="Capa_1" xmlns="http://www.w3.org/2000/svg" xmlns:xlink="http://www.w3.org/1999/xlink" x="0px" y="0px"
	 viewBox="0 0 24 24" style="enable-background:new 0 0 24 24;" xml:space="preserve">
<style type="text/css">
	.st0{fill:none;}
	.st1{fill:#FFFFFF;stroke:#F2F2F2;stroke-width:0.1;stroke-miterlimit:10;}
	.st2{fill:#00B0FF;}
</style>
<path class="st0" d="M0,0h24v24H0V0z"/>
<path class="st1" d="M19.2,7c-0.7-3.3-3.6-5.9-7.3-5.9c-2.9,0-5.3,1.6-6.6,3.9c-3,0.4-5.2,2.9-5.2,5.9c0,3.2,2.7,5.9,5.9,5.9h12.8
	c2.8,0,4.9-2.2,4.9-4.9C23.8,9.4,21.8,7.2,19.2,7z"/>
<g>
	<path class="st2" d="M6.6,10.6h2.7v5.3H6.6V10.6z M6.6,17.2h2.7v2.7H6.6V17.2z M10.6,13.2h2.7v5.3h-2.7V13.2z M10.6,19.8h2.7v2.7
		h-2.7V19.8z M14.6,10.6h2.7v5.3h-2.7V10.6z M14.6,17.2h2.7v2.7h-2.7V17.2z"/>
</g>
</svg>
