<?xml version="1.0" encoding="utf-8"?>
<!-- Generator: Adobe Illustrator 22.0.0, SVG Export Plug-In . SVG Version: 6.00 Build 0)  -->
<svg version="1.1" id="Capa_1" xmlns="http://www.w3.org/2000/svg" xmlns:xlink="http://www.w3.org/1999/xlink" x="0px" y="0px"
	 viewBox="0 0 24 24" style="enable-background:new 0 0 24 24;" xml:space="preserve">
<style type="text/css">
	.st0{fill:none;}
	.st1{fill:#FFFFFF;stroke:#F2F2F2;stroke-width:0.1;stroke-miterlimit:10;}
	.st2{fill:#FFFFFF;stroke:#6EDDFF;stroke-width:0.25;stroke-miterlimit:10;}
</style>
<path class="st0" d="M0.1,0h23.8v23.8H0.1V0z"/>
<path class="st1" d="M19.3,6.9C18.6,3.6,15.7,1,12,1c-2.9,0-5.3,1.6-6.6,4c-3,0.4-5.2,2.9-5.2,5.9c0,3.3,2.7,5.9,5.9,5.9h12.9
	c2.8,0,4.9-2.2,4.9-4.9C23.9,9.3,21.9,7.1,19.3,6.9z"/>
<g>
	<path class="st0" d="M5.6,9.5h12.9v12.9H5.6V9.5z"/>
	<path class="st2" d="M17.3,15.3h-2.3l1.8-1.8l-0.8-0.7l-2.5,2.5h-1.1v-1.1l2.5-2.5L14.2,11l-1.8,1.8v-2.3h-1.1v2.3L9.5,11l-0.8,0.8
		l2.5,2.5v1.1h-1.1l-2.2-2.5l-0.8,0.8l1.8,1.8H6.7v1.1h2.3l-1.8,1.8l0.8,0.8l2.5-2.5h1.1v1.1L9,20.2l0.7,0.6l1.8-1.8v2.3h1.1V19
		l1.8,1.8l0.8-0.8l-2.5-2.5v-1.1h1.1l2.5,2.5l0.8-0.8l-1.8-1.8h2.3v-1C17.5,15.3,17.3,15.3,17.3,15.3z"/>
</g>
</svg>
