<?xml version="1.0" encoding="utf-8"?>
<!-- Generator: Adobe Illustrator 22.0.0, SVG Export Plug-In . SVG Version: 6.00 Build 0)  -->
<svg version="1.1" id="Capa_1" xmlns="http://www.w3.org/2000/svg" xmlns:xlink="http://www.w3.org/1999/xlink" x="0px" y="0px"
	 viewBox="0 0 24 24" style="enable-background:new 0 0 24 24;" xml:space="preserve">
<style type="text/css">
	.st0{fill:#00B0FF;}
	.st1{fill:none;}
	.st2{fill:#FFFFFF;stroke:#F2F2F2;stroke-width:0.1;stroke-miterlimit:10;}
	.st3{fill:#FFFFFF;stroke:#6EDDFF;stroke-width:0.25;stroke-miterlimit:10;}
</style>
<g>
	<path class="st0" d="M14.8,13.3l1.8,0.6l-2,6.1l-1.8-0.6L14.8,13.3z M16.6,15.6l1.7,0.5l-1.8,5.5l-1.7-0.5
		C15,21.1,16.6,15.6,16.6,15.6z M19.6,14.8l1.7,0.5l-1.8,5.5l-1.7-0.5L19.6,14.8z"/>
</g>
<path class="st1" d="M0.1,0.1h23.8v23.8H0.1V0.1z"/>
<path class="st2" d="M19.2,7.1c-0.7-3.4-3.6-5.9-7.3-5.9c-2.9,0-5.3,1.6-6.6,3.9c-3,0.4-5.2,2.9-5.2,5.9C0.1,14.3,2.7,17,6,17h12.8
	c2.8,0,4.9-2.2,4.9-4.9C23.7,9.5,21.8,7.3,19.2,7.1z"/>
<g>
	<path class="st1" d="M3.5,12.7h7.9v7.9H3.5V12.7z"/>
	<path class="st3" d="M10.8,16.3H9.5l1.1-1.1L10,14.7l-1.6,1.6H7.9v-0.7L9.4,14l-0.5-0.5l-1.1,1.1v-1.4H7.2v1.4l-1.1-1.1L5.6,14
		l1.6,1.6v0.7H6.5L5,14.7l-0.5,0.5l1.1,1.1H4.2V17h1.4l-1.1,1L5,18.5l1.6-1.6h0.7v0.7l-1.6,1.6l0.5,0.5l1.1-1.1V20H8v-1.4l1.1,1.1
		l0.5-0.5L8,17.6v-0.7h0.7l1.6,1.6l0.5-0.5l-1.1-1.1H11v-0.6H10.8z"/>
</g>
</svg>
